<svg width="142" height="164" viewBox="0 0 142 164" fill="none" xmlns="http://www.w3.org/2000/svg">
<path d="M11 144H17.8289C20.6586 144 22.676 144.421 23.8811 145.264C25.0862 146.107 25.6888 147.318 25.6888 148.896C25.6888 149.757 25.5325 150.487 25.2201 151.088C24.9166 151.689 24.5283 152.164 24.0552 152.514C23.591 152.863 23.1134 153.101 22.6225 153.227V153.361C23.1581 153.496 23.6892 153.72 24.2159 154.034C24.7515 154.338 25.1933 154.8 25.5415 155.419C25.8985 156.029 26.0771 156.858 26.0771 157.907C26.0771 159.1 25.7736 160.126 25.1666 160.987C24.5685 161.848 23.7115 162.512 22.5957 162.978C21.4799 163.435 20.1543 163.664 18.6189 163.664H11V144ZM16.289 151.545H17.8824C18.7572 151.545 19.3732 151.366 19.7302 151.007C20.0873 150.64 20.2658 150.196 20.2658 149.676C20.2658 149.138 20.0605 148.73 19.6499 148.452C19.2482 148.165 18.6233 148.022 17.7753 148.022H16.289V151.545ZM16.289 155.432V159.562H18.1502C19.0697 159.562 19.7124 159.364 20.0784 158.97C20.4444 158.566 20.6274 158.064 20.6274 157.463C20.6274 157.114 20.547 156.786 20.3863 156.482C20.2346 156.168 19.9713 155.917 19.5963 155.728C19.2214 155.531 18.7037 155.432 18.0431 155.432H16.289Z" fill="#525355"/>
<path d="M35.999 148.156C37.4719 148.156 38.744 148.416 39.8152 148.936C40.8863 149.447 41.7121 150.218 42.2923 151.249C42.8725 152.281 43.1626 153.572 43.1626 155.123V157.463H33.8031C33.8477 158.261 34.1423 158.916 34.6868 159.427C35.2403 159.938 36.0526 160.194 37.1238 160.194C38.07 160.194 38.9359 160.1 39.7214 159.911C40.5159 159.723 41.3327 159.432 42.1718 159.037V162.816C41.4398 163.202 40.6409 163.484 39.775 163.664C38.9091 163.843 37.8156 163.933 36.4944 163.933C34.968 163.933 33.6022 163.659 32.3971 163.112C31.192 162.565 30.2413 161.718 29.5451 160.57C28.8577 159.423 28.514 157.948 28.514 156.145C28.514 154.316 28.8265 152.814 29.4513 151.64C30.0762 150.456 30.951 149.582 32.0758 149.017C33.2005 148.443 34.5083 148.156 35.999 148.156ZM36.1865 151.734C35.5705 151.734 35.0528 151.931 34.6332 152.325C34.2226 152.711 33.9816 153.321 33.9102 154.155H38.4092C38.4003 153.706 38.311 153.298 38.1414 152.931C37.9718 152.563 37.7219 152.272 37.3916 152.056C37.0702 151.841 36.6685 151.734 36.1865 151.734Z" fill="#525355"/>
<path d="M53.5532 159.777C54.0263 159.777 54.4593 159.727 54.8521 159.629C55.2448 159.53 55.6555 159.405 56.0839 159.252V163.085C55.5126 163.336 54.9056 163.538 54.2629 163.691C53.6291 163.852 52.8168 163.933 51.8259 163.933C50.844 163.933 49.9781 163.78 49.2283 163.475C48.4784 163.162 47.8937 162.624 47.4742 161.861C47.0636 161.09 46.8583 160.019 46.8583 158.647V152.366H45.0238V150.227L47.3537 148.573L48.7061 145.372H52.1339V148.425H55.8563V152.366H52.1339V158.297C52.1339 158.79 52.2589 159.163 52.5088 159.414C52.7588 159.656 53.1069 159.777 53.5532 159.777Z" fill="#525355"/>
<path d="M66.1666 159.777C66.6397 159.777 67.0726 159.727 67.4654 159.629C67.8582 159.53 68.2688 159.405 68.6973 159.252V163.085C68.126 163.336 67.5189 163.538 66.8762 163.691C66.2424 163.852 65.4301 163.933 64.4393 163.933C63.4573 163.933 62.5914 163.78 61.8416 163.475C61.0918 163.162 60.5071 162.624 60.0875 161.861C59.6769 161.09 59.4716 160.019 59.4716 158.647V152.366H57.6372V150.227L59.967 148.573L61.3194 145.372H64.7472V148.425H68.4696V152.366H64.7472V158.297C64.7472 158.79 64.8722 159.163 65.1221 159.414C65.3721 159.656 65.7202 159.777 66.1666 159.777Z" fill="#525355"/>
<path d="M78.1773 148.156C79.6502 148.156 80.9223 148.416 81.9935 148.936C83.0647 149.447 83.8904 150.218 84.4706 151.249C85.0508 152.281 85.341 153.572 85.341 155.123V157.463H75.9814C76.026 158.261 76.3206 158.916 76.8651 159.427C77.4186 159.938 78.2309 160.194 79.3021 160.194C80.2483 160.194 81.1142 160.1 81.8997 159.911C82.6942 159.723 83.511 159.432 84.3501 159.037V162.816C83.6181 163.202 82.8192 163.484 81.9533 163.664C81.0874 163.843 79.9939 163.933 78.6728 163.933C77.1463 163.933 75.7805 163.659 74.5754 163.112C73.3703 162.565 72.4197 161.718 71.7234 160.57C71.036 159.423 70.6924 157.948 70.6924 156.145C70.6924 154.316 71.0048 152.814 71.6297 151.64C72.2545 150.456 73.1293 149.582 74.2541 149.017C75.3788 148.443 76.6866 148.156 78.1773 148.156ZM78.3648 151.734C77.7489 151.734 77.2311 151.931 76.8116 152.325C76.4009 152.711 76.1599 153.321 76.0885 154.155H80.5875C80.5786 153.706 80.4893 153.298 80.3197 152.931C80.1501 152.563 79.9002 152.272 79.5699 152.056C79.2485 151.841 78.8468 151.734 78.3648 151.734Z" fill="#525355"/>
<path d="M97.4589 148.156C97.7445 148.156 98.0435 148.178 98.356 148.223C98.6684 148.259 98.9005 148.291 99.0523 148.317L98.5836 153.28C98.414 153.236 98.1953 153.2 97.9275 153.173C97.6597 153.137 97.2848 153.119 96.8027 153.119C96.4725 153.119 96.1199 153.15 95.7449 153.213C95.37 153.276 95.013 153.41 94.6737 153.617C94.3435 153.814 94.0712 154.119 93.857 154.531C93.6427 154.935 93.5356 155.482 93.5356 156.172V163.664H88.3001V148.425H92.1966L93.0134 150.859H93.2678C93.5445 150.357 93.8971 149.905 94.3256 149.501C94.763 149.089 95.2495 148.761 95.7851 148.519C96.3296 148.277 96.8875 148.156 97.4589 148.156Z" fill="#525355"/>
<path d="M125.256 144V155.836C125.256 157.486 124.944 158.92 124.319 160.14C123.694 161.35 122.757 162.287 121.507 162.951C120.257 163.605 118.691 163.933 116.807 163.933C114.111 163.933 112.054 163.238 110.635 161.848C109.215 160.458 108.506 158.495 108.506 155.957V144H113.821V155.54C113.821 156.93 114.08 157.939 114.598 158.566C115.116 159.194 115.879 159.508 116.888 159.508C117.611 159.508 118.2 159.373 118.655 159.104C119.11 158.826 119.441 158.391 119.646 157.8C119.86 157.208 119.967 156.446 119.967 155.513V144H125.256Z" fill="#525355"/>
<path d="M128.403 161.431C128.403 160.481 128.68 159.813 129.233 159.427C129.796 159.041 130.47 158.849 131.255 158.849C131.996 158.849 132.639 159.041 133.183 159.427C133.728 159.813 134 160.481 134 161.431C134 162.337 133.728 162.991 133.183 163.395C132.639 163.798 131.996 164 131.255 164C130.47 164 129.796 163.798 129.233 163.395C128.68 162.991 128.403 162.337 128.403 161.431Z" fill="#525355"/>
<g filter="url(#filter0_d_257_148)">
<rect x="8" y="6" width="126" height="126" rx="8" fill="url(#paint0_linear_257_148)"/>
</g>
<path d="M81.3046 42V94.8342H67.5955L65.3184 88.2591H64.2496C63.1652 90.0311 61.7866 91.4767 60.1136 92.5959C58.4716 93.6839 56.6437 94.4767 54.6299 94.9741C52.6162 95.5026 50.525 95.7668 48.3563 95.7668C44.9174 95.7668 41.8038 95.0984 39.0155 93.7617C36.2582 92.4249 34.0585 90.3264 32.4165 87.4663C30.8055 84.6062 30 80.9223 30 76.4145V42H48.1704V70.8653C48.1704 74.285 48.6506 76.8964 49.611 78.6995C50.6024 80.4715 52.2134 81.3575 54.4441 81.3575C56.7367 81.3575 58.5026 80.7357 59.7418 79.4922C61.012 78.2487 61.895 76.4145 62.3907 73.9896C62.8864 71.5648 63.1343 68.6114 63.1343 65.1295V42H81.3046Z" fill="white"/>
<path d="M91.5749 87.0933C91.5749 83.7979 92.5353 81.4819 94.4561 80.1451C96.4079 78.8083 98.747 78.1399 101.473 78.1399C104.045 78.1399 106.275 78.8083 108.165 80.1451C110.055 81.4819 111 83.7979 111 87.0933C111 90.2332 110.055 92.5026 108.165 93.9016C106.275 95.3005 104.045 96 101.473 96C98.747 96 96.4079 95.3005 94.4561 93.9016C92.5353 92.5026 91.5749 90.2332 91.5749 87.0933Z" fill="white"/>
<defs>
<filter id="filter0_d_257_148" x="0" y="0" width="142" height="142" filterUnits="userSpaceOnUse" color-interpolation-filters="sRGB">
<feFlood flood-opacity="0" result="BackgroundImageFix"/>
<feColorMatrix in="SourceAlpha" type="matrix" values="0 0 0 0 0 0 0 0 0 0 0 0 0 0 0 0 0 0 127 0" result="hardAlpha"/>
<feOffset dy="2"/>
<feGaussianBlur stdDeviation="4"/>
<feComposite in2="hardAlpha" operator="out"/>
<feColorMatrix type="matrix" values="0 0 0 0 0.129412 0 0 0 0 0.129412 0 0 0 0 0.129412 0 0 0 0.15 0"/>
<feBlend mode="normal" in2="BackgroundImageFix" result="effect1_dropShadow_257_148"/>
<feBlend mode="normal" in="SourceGraphic" in2="effect1_dropShadow_257_148" result="shape"/>
</filter>
<linearGradient id="paint0_linear_257_148" x1="71" y1="132" x2="71" y2="6" gradientUnits="userSpaceOnUse">
<stop stop-color="#7191F8"/>
<stop offset="1" stop-color="#313AF5"/>
</linearGradient>
</defs>
</svg>
