<svg width="2253" height="700" viewBox="0 0 457 129" fill="none" xmlns="http://www.w3.org/2000/svg">
<path d="M157.132 38.0713H173.781C180.68 38.0713 185.598 39.085 188.536 41.1124C191.474 43.1397 192.943 46.0514 192.943 49.8473C192.943 51.9179 192.562 53.6756 191.8 55.1207C191.06 56.5657 190.114 57.7088 188.96 58.55C187.829 59.3911 186.664 59.9627 185.467 60.2646V60.5882C186.773 60.9117 188.068 61.4509 189.352 62.2057C190.658 62.939 191.735 64.0498 192.584 65.538C193.454 67.0046 193.889 68.9996 193.889 71.5231C193.889 74.3916 193.15 76.8611 191.67 78.9316C190.212 81.0021 188.122 82.5982 185.402 83.7197C182.682 84.8197 179.45 85.3696 175.707 85.3696H157.132V38.0713ZM170.027 56.2207H173.911C176.044 56.2207 177.546 55.7893 178.416 54.9266C179.287 54.0423 179.722 52.9747 179.722 51.7238C179.722 50.4297 179.221 49.4483 178.22 48.7797C177.241 48.0896 175.718 47.7445 173.65 47.7445H170.027V56.2207ZM170.027 65.5703V75.5023H174.564C176.806 75.5023 178.373 75.0278 179.265 74.0789C180.157 73.1083 180.603 71.9005 180.603 70.4555C180.603 69.6143 180.408 68.8271 180.016 68.0938C179.646 67.3389 179.004 66.735 178.09 66.2821C177.176 65.8076 175.914 65.5703 174.303 65.5703H170.027Z" fill="#525355"/>
<path d="M218.079 48.068C221.67 48.068 224.771 48.6935 227.382 49.9444C229.994 51.1738 232.007 53.0286 233.421 55.5089C234.836 57.9892 235.543 61.095 235.543 64.8262V70.4555H212.725C212.834 72.375 213.552 73.9494 214.88 75.1788C216.229 76.4082 218.209 77.0229 220.821 77.0229C223.128 77.0229 225.239 76.7964 227.154 76.3435C229.091 75.8906 231.082 75.1896 233.128 74.2406V83.3315C231.343 84.2589 229.395 84.9383 227.284 85.3696C225.173 85.801 222.507 86.0167 219.287 86.0167C215.565 86.0167 212.235 85.3589 209.297 84.0432C206.359 82.7276 204.042 80.6894 202.344 77.9287C200.669 75.168 199.831 71.6201 199.831 67.285C199.831 62.8851 200.592 59.2725 202.116 56.4471C203.639 53.6002 205.772 51.4973 208.514 50.1385C211.256 48.7582 214.444 48.068 218.079 48.068ZM218.536 56.6736C217.034 56.6736 215.772 57.1481 214.749 58.0971C213.748 59.0245 213.16 60.4911 212.986 62.4969H223.955C223.933 61.4185 223.715 60.4372 223.302 59.5529C222.888 58.6686 222.279 57.9677 221.474 57.45C220.69 56.9324 219.711 56.6736 218.536 56.6736Z" fill="#525355"/>
<path d="M260.875 76.02C262.028 76.02 263.084 75.9013 264.041 75.6641C264.999 75.4268 266 75.1249 267.045 74.7582V83.9785C265.652 84.5824 264.172 85.0677 262.605 85.4343C261.06 85.8226 259.08 86.0167 256.664 86.0167C254.27 86.0167 252.159 85.65 250.331 84.9167C248.503 84.1618 247.077 82.8678 246.055 81.0345C245.054 79.1797 244.553 76.6023 244.553 73.3024V58.1941H240.081V53.0502L245.761 49.0709L249.058 41.3712H257.415V48.715H266.49V58.1941H257.415V72.4613C257.415 73.6475 257.719 74.5426 258.329 75.1465C258.938 75.7288 259.787 76.02 260.875 76.02Z" fill="#525355"/>
<path d="M291.626 76.02C292.779 76.02 293.835 75.9013 294.792 75.6641C295.75 75.4268 296.751 75.1249 297.795 74.7582V83.9785C296.403 84.5824 294.923 85.0677 293.356 85.4343C291.811 85.8226 289.83 86.0167 287.415 86.0167C285.021 86.0167 282.91 85.65 281.082 84.9167C279.254 84.1618 277.828 82.8678 276.805 81.0345C275.804 79.1797 275.304 76.6023 275.304 73.3024V58.1941H270.831V53.0502L276.511 49.0709L279.809 41.3712H288.165V48.715H297.24V58.1941H288.165V72.4613C288.165 73.6475 288.47 74.5426 289.079 75.1465C289.689 75.7288 290.538 76.02 291.626 76.02Z" fill="#525355"/>
<path d="M320.907 48.068C324.498 48.068 327.599 48.6935 330.211 49.9444C332.822 51.1738 334.835 53.0286 336.25 55.5089C337.665 57.9892 338.372 61.095 338.372 64.8262V70.4555H315.554C315.663 72.375 316.381 73.9494 317.708 75.1788C319.057 76.4082 321.038 77.0229 323.649 77.0229C325.956 77.0229 328.067 76.7964 329.982 76.3435C331.919 75.8906 333.911 75.1896 335.956 74.2406V83.3315C334.172 84.2589 332.224 84.9383 330.113 85.3696C328.002 85.801 325.336 86.0167 322.115 86.0167C318.394 86.0167 315.064 85.3589 312.126 84.0432C309.188 82.7276 306.87 80.6894 305.173 77.9287C303.497 75.168 302.659 71.6201 302.659 67.285C302.659 62.8851 303.421 59.2725 304.944 56.4471C306.468 53.6002 308.601 51.4973 311.343 50.1385C314.085 48.7582 317.273 48.068 320.907 48.068ZM321.364 56.6736C319.863 56.6736 318.6 57.1481 317.578 58.0971C316.577 59.0245 315.989 60.4911 315.815 62.4969H326.783C326.761 61.4185 326.544 60.4372 326.13 59.5529C325.717 58.6686 325.108 57.9677 324.302 57.45C323.519 56.9324 322.54 56.6736 321.364 56.6736Z" fill="#525355"/>
<path d="M367.915 48.068C368.611 48.068 369.34 48.1219 370.102 48.2298C370.864 48.316 371.429 48.3915 371.799 48.4562L370.657 60.394C370.243 60.2862 369.71 60.1999 369.057 60.1352C368.404 60.049 367.49 60.0058 366.315 60.0058C365.51 60.0058 364.65 60.0813 363.736 60.2323C362.822 60.3833 361.952 60.7068 361.125 61.2028C360.32 61.6773 359.656 62.4106 359.133 63.4028C358.611 64.3733 358.35 65.689 358.35 67.3497V85.3696H345.586V48.715H355.086L357.077 54.5707H357.697C358.372 53.3629 359.231 52.2737 360.276 51.3032C361.342 50.3111 362.528 49.5238 363.834 48.9415C365.162 48.3592 366.522 48.068 367.915 48.068Z" fill="#525355"/>
<path d="M435.684 38.0713V66.5409C435.684 70.5094 434.922 73.9602 433.399 76.8935C431.875 79.8051 429.59 82.059 426.543 83.655C423.497 85.2294 419.677 86.0167 415.085 86.0167C408.513 86.0167 403.497 84.3452 400.036 81.0021C396.576 77.6591 394.846 72.9358 394.846 66.8321V38.0713H407.806V65.8291C407.806 69.1722 408.437 71.5985 409.699 73.1083C410.961 74.618 412.822 75.3729 415.281 75.3729C417.044 75.3729 418.48 75.0494 419.59 74.4024C420.7 73.7338 421.505 72.6877 422.006 71.2642C422.528 69.8408 422.789 68.0075 422.789 65.7644V38.0713H435.684Z" fill="#525355"/>
<path d="M443.355 79.9992C443.355 77.713 444.03 76.1062 445.379 75.1788C446.75 74.2514 448.393 73.7877 450.308 73.7877C452.114 73.7877 453.681 74.2514 455.009 75.1788C456.336 76.1062 457 77.713 457 79.9992C457 82.1776 456.336 83.752 455.009 84.7226C453.681 85.6932 452.114 86.1784 450.308 86.1784C448.393 86.1784 446.75 85.6932 445.379 84.7226C444.03 83.752 443.355 82.1776 443.355 79.9992Z" fill="#525355"/>
<g filter="url(#filter0_d_414_852)">
<rect x="8" y="6" width="112.25" height="112.25" rx="8" fill="url(#paint0_linear_414_852)"/>
</g>
<path d="M73.9643 38.0713V85.1399H61.4798L59.4061 79.2822H58.4327C57.4453 80.8609 56.1898 82.1487 54.6662 83.1458C53.1709 84.1151 51.5063 84.8214 49.6724 85.2645C47.8386 85.7353 45.9341 85.9707 43.9592 85.9707C40.8275 85.9707 37.992 85.3753 35.4528 84.1844C32.9418 82.9934 30.9386 81.124 29.4433 78.576C27.9762 76.028 27.2427 72.7461 27.2427 68.7302V38.0713H43.7899V63.7866C43.7899 66.8331 44.2272 69.1595 45.1018 70.7659C46.0047 72.3445 47.4718 73.1338 49.5032 73.1338C51.591 73.1338 53.1991 72.5799 54.3277 71.4721C55.4844 70.3643 56.2885 68.7302 56.7399 66.57C57.1913 64.4097 57.417 61.7787 57.417 58.6768V38.0713H73.9643Z" fill="white"/>
<path d="M83.3171 78.2437C83.3171 75.3079 84.1917 73.2446 85.9409 72.0537C87.7184 70.8628 89.8485 70.2673 92.3313 70.2673C94.673 70.2673 96.7044 70.8628 98.4254 72.0537C100.146 73.2446 101.007 75.3079 101.007 78.2437C101.007 81.0409 100.146 83.0627 98.4254 84.309C96.7044 85.5553 94.673 86.1784 92.3313 86.1784C89.8485 86.1784 87.7184 85.5553 85.9409 84.309C84.1917 83.0627 83.3171 81.0409 83.3171 78.2437Z" fill="white"/>
<defs>
<filter id="filter0_d_414_852" x="0" y="0" width="128.25" height="128.25" filterUnits="userSpaceOnUse" color-interpolation-filters="sRGB">
<feFlood flood-opacity="0" result="BackgroundImageFix"/>
<feColorMatrix in="SourceAlpha" type="matrix" values="0 0 0 0 0 0 0 0 0 0 0 0 0 0 0 0 0 0 127 0" result="hardAlpha"/>
<feOffset dy="2"/>
<feGaussianBlur stdDeviation="4"/>
<feComposite in2="hardAlpha" operator="out"/>
<feColorMatrix type="matrix" values="0 0 0 0 0.129412 0 0 0 0 0.129412 0 0 0 0 0.129412 0 0 0 0.15 0"/>
<feBlend mode="normal" in2="BackgroundImageFix" result="effect1_dropShadow_414_852"/>
<feBlend mode="normal" in="SourceGraphic" in2="effect1_dropShadow_414_852" result="shape"/>
</filter>
<linearGradient id="paint0_linear_414_852" x1="64.125" y1="118.25" x2="64.125" y2="6" gradientUnits="userSpaceOnUse">
<stop stop-color="#F6D188"/>
<stop offset="1" stop-color="#EE8B83"/>
</linearGradient>
</defs>
</svg>
